# xmcd CD database file
#
# Track frame offsets:
#	150
#	14541
#	27043
#	46255
#	56666
#	67804
#	80669
#	101057
#	113079
#	127790
#	139804
#	150571
#	163983
#	176317
#	192035
#	201934
#	218581
#	232724
#	256560
#	268644
#
# Disc length: 3734 seconds
#
# Revision: 2
# Processed by: cddbd v1.4b41PL1 Copyright (c) Steve Scherf et al.
# Submitted via: Feurio! 1.60 - http://www.feurio.com
#
DISCID=270e9414,fe0e9414
DTITLE=Creedence Clearwater Revival - 20 Superhits
DYEAR=1900
DGENRE=
TTITLE0=Proud Mary
TTITLE1=Down On The Corner
TTITLE2=Midnight Special
TTITLE3=My Baby Left Me
TTITLE4=Who´ll Stop The Rain
TTITLE5=Good Golly, Miss Molly
TTITLE6=I Put A Spell On You
TTITLE7=Up Around The Bend
TTITLE8=Lodi
TTITLE9=Molina
TTITLE10=Bad Moon Rising
TTITLE11=Cotton Fields
TTITLE12=Commotion
TTITLE13=Long As I Can See The Light
TTITLE14=Don´t Look Now (As I Can See The Light)
TTITLE15=Sailor´s Lament
TTITLE16=Run Through The Jungle
TTITLE17=Born Through The Jungle
TTITLE18=Have You ever Seen The Rain
TTITLE19=Lookin´ Out My Backdoor
EXTD=
EXTT0=
EXTT1=
EXTT2=
EXTT3=
EXTT4=
EXTT5=
EXTT6=
EXTT7=
EXTT8=
EXTT9=
EXTT10=
EXTT11=
EXTT12=
EXTT13=
EXTT14=
EXTT15=
EXTT16=
EXTT17=
EXTT18=
EXTT19=
PLAYORDER=
